<svg width="28" height="27" viewBox="0 0 28 27" fill="none" xmlns="http://www.w3.org/2000/svg">
<path id="Vector" d="M14.2539 2.37686C17.3944 2.37686 20.3463 3.48996 22.5653 5.51112C24.7801 7.52849 26 10.2098 26 13.061C26 15.912 24.7801 18.5933 22.5653 20.6107C20.3461 22.632 17.3943 23.7453 14.2539 23.7453C12.266 23.7453 10.3014 23.285 8.57225 22.4142L7.82119 22.036L7.00475 22.274L3.164 23.394L4.37494 20.1154L4.67481 19.3035L4.18913 18.5713C3.08956 16.9134 2.50838 15.008 2.50838 13.061C2.50838 10.2098 3.72825 7.52849 5.94319 5.51106C8.16225 3.48996 11.1137 2.37686 14.2539 2.37686ZM14.2539 0.541016C6.66281 0.541016 0.508375 6.14615 0.508375 13.061C0.508375 15.4264 1.22913 17.6387 2.48081 19.5259L0 26.2429L7.61025 24.0237C9.5795 25.0153 11.8443 25.5811 14.2539 25.5811C21.8459 25.5811 28 19.9751 28 13.061C28 6.14615 21.8459 0.541016 14.2539 0.541016Z" fill="#D94135"/>
</svg>
