<svg width="26" height="25" viewBox="0 0 26 25" fill="none" xmlns="http://www.w3.org/2000/svg">
<g id="Group">
<path id="Vector" d="M19.6664 5.57812H20.3331M17.6158 11.6817C17.7056 12.2382 17.6751 12.8055 17.5261 13.3512C17.3771 13.8969 17.1124 14.4103 16.7473 14.8621C16.3821 15.314 15.9235 15.6953 15.3978 15.9845C14.872 16.2736 14.2894 16.4649 13.6831 16.5473C13.0768 16.6298 12.4588 16.6018 11.8643 16.465C11.2698 16.3282 10.7105 16.0853 10.2183 15.7501C9.22423 15.0731 8.56385 14.0614 8.38245 12.9374C8.20104 11.8135 8.51346 10.6695 9.25098 9.75699C9.98849 8.84451 11.0907 8.23834 12.3151 8.07182C13.5395 7.9053 14.7859 8.19208 15.7799 8.86906C16.774 9.54605 17.4344 10.5578 17.6158 11.6817Z" stroke="#D94135" stroke-width="2" stroke-linecap="round" stroke-linejoin="round"/>
<path id="Vector_2" d="M1 9.12788C1 6.38634 1 5.01558 1.58133 3.96792C2.09265 3.04679 2.90851 2.29789 3.912 1.82854C5.05333 1.29492 6.54667 1.29492 9.53333 1.29492H16.4667C19.4533 1.29492 20.9467 1.29492 22.088 1.82854C23.0915 2.29789 23.9073 3.04679 24.4187 3.96792C25 5.01558 25 6.38634 25 9.12788V15.4922C25 18.2337 25 19.6045 24.4187 20.6521C23.9073 21.5732 23.0915 22.3221 22.088 22.7915C20.9467 23.3251 19.4533 23.3251 16.4667 23.3251H9.53333C6.54667 23.3251 5.05333 23.3251 3.912 22.7915C2.90851 22.3221 2.09265 21.5732 1.58133 20.6521C1 19.6045 1 18.2337 1 15.4922V9.12788Z" stroke="#D94135" stroke-width="2" stroke-linecap="round" stroke-linejoin="round"/>
</g>
</svg>
