<svg width="24" height="24" viewBox="0 0 24 24" fill="none" xmlns="http://www.w3.org/2000/svg">
<path id="Vector" d="M7.07733 23.2431C6.51467 23.2431 6.04044 23.066 5.65467 22.7119C5.26889 22.3578 5.07644 21.9229 5.07733 21.4072C5.07822 20.8916 5.27067 20.4563 5.65467 20.1013C6.04044 19.748 6.51467 19.5714 7.07733 19.5714C7.64 19.5714 8.11378 19.748 8.49867 20.1013C8.88356 20.4546 9.07644 20.8899 9.07733 21.4072C9.07822 21.9245 8.88533 22.3594 8.49867 22.7119C8.112 23.0644 7.63822 23.2415 7.07733 23.2431ZM19.5893 23.2431C19.0276 23.2431 18.5538 23.066 18.168 22.7119C17.7822 22.3578 17.5893 21.9229 17.5893 21.4072C17.5893 20.8916 17.7822 20.4563 18.168 20.1013C18.5538 19.748 19.0276 19.5714 19.5893 19.5714C20.1511 19.5714 20.6253 19.748 21.012 20.1013C21.3969 20.4555 21.5893 20.8908 21.5893 21.4072C21.5893 21.9229 21.3969 22.3578 21.012 22.7119C20.6262 23.066 20.152 23.2431 19.5893 23.2431ZM5.17467 4.13068L8.73333 11.0041H17.58C17.7338 11.0041 17.8702 10.9686 17.9893 10.8976C18.1093 10.8266 18.212 10.7287 18.2973 10.6039L21.7853 4.79036C21.8876 4.61739 21.896 4.4644 21.8107 4.3314C21.7244 4.19759 21.5791 4.13068 21.3747 4.13068H5.17467ZM4.52267 2.90678H21.8827C22.4613 2.90678 22.8969 3.12382 23.1893 3.5579C23.4827 3.99116 23.4982 4.43788 23.236 4.89807L19.4253 11.2721C19.2324 11.57 18.9818 11.8037 18.6733 11.9734C18.3649 12.1431 18.0258 12.228 17.656 12.228H8.13333L6.51333 14.9573C6.37644 15.1458 6.372 15.3498 6.5 15.5692C6.628 15.7887 6.82044 15.8989 7.07733 15.8997H21.5893V17.1236H7.07733C6.29956 17.1236 5.71911 16.8225 5.336 16.2204C4.95289 15.6182 4.94356 15.0136 5.308 14.4065L7.31333 11.1265L2.41067 1.68288H0V0.458984H3.256L4.52267 2.90678Z" fill="#D94135"/>
</svg>
