<svg width="16" height="25" viewBox="0 0 16 25" fill="none" xmlns="http://www.w3.org/2000/svg">
<path id="Vector" fill-rule="evenodd" clip-rule="evenodd" d="M5.65067 2.25931C6.96325 1.05425 8.74357 0.377155 10.6 0.376953H14.2C14.4652 0.376953 14.7196 0.473663 14.9071 0.645807C15.0946 0.817951 15.2 1.05143 15.2 1.29488V5.70091C15.2 5.94436 15.0946 6.17784 14.9071 6.34999C14.7196 6.52213 14.4652 6.61884 14.2 6.61884H10.6C10.5737 6.61884 10.5477 6.62359 10.5235 6.63281C10.4992 6.64204 10.4772 6.65556 10.4586 6.67261C10.44 6.68966 10.4253 6.7099 10.4152 6.73217C10.4052 6.75444 10.4 6.77832 10.4 6.80242V9.18903H14.2C14.352 9.18895 14.5021 9.22069 14.6387 9.28184C14.7754 9.34298 14.895 9.43192 14.9886 9.5419C15.0822 9.65187 15.1473 9.77999 15.1788 9.9165C15.2103 10.053 15.2076 10.1943 15.1707 10.3297L13.9707 14.7357C13.9165 14.9344 13.7916 15.1107 13.6157 15.2367C13.4398 15.3627 13.2231 15.431 13 15.4309H10.4V23.3251C10.4 23.5685 10.2946 23.802 10.1071 23.9741C9.91957 24.1463 9.66522 24.243 9.4 24.243H4.6C4.33478 24.243 4.08043 24.1463 3.89289 23.9741C3.70536 23.802 3.6 23.5685 3.6 23.3251V15.4309H1C0.734784 15.4309 0.480429 15.3342 0.292893 15.1621C0.105357 14.9899 0 14.7564 0 14.513V10.107C0 9.98641 0.0258657 9.86705 0.0761204 9.75568C0.126375 9.64431 0.200035 9.54312 0.292893 9.45788C0.385752 9.37264 0.495991 9.30503 0.617317 9.2589C0.738642 9.21277 0.868678 9.18903 1 9.18903H3.6V6.80242C3.60022 5.09836 4.33786 3.46416 5.65067 2.25931ZM10.6 2.2128C9.27392 2.2128 8.00215 2.69635 7.06447 3.55707C6.12678 4.41779 5.6 5.58518 5.6 6.80242V10.107C5.6 10.3504 5.49464 10.5839 5.30711 10.756C5.11957 10.9282 4.86522 11.0249 4.6 11.0249H2V13.5951H4.6C4.86522 13.5951 5.11957 13.6918 5.30711 13.8639C5.49464 14.0361 5.6 14.2695 5.6 14.513V22.4071H8.4V14.513C8.4 14.2695 8.50536 14.0361 8.69289 13.8639C8.88043 13.6918 9.13478 13.5951 9.4 13.5951H12.2187L12.9187 11.0249H9.4C9.13478 11.0249 8.88043 10.9282 8.69289 10.756C8.50536 10.5839 8.4 10.3504 8.4 10.107V6.80242C8.4 6.26684 8.63179 5.75319 9.04436 5.37447C9.45695 4.99575 10.0165 4.78299 10.6 4.78299H13.2V2.2128H10.6Z" fill="#D94135"/>
</svg>
