<svg width="26" height="25" viewBox="0 0 26 25" fill="none" xmlns="http://www.w3.org/2000/svg">
<path id="Vector" d="M24.75 6.72039C23.093 6.71857 21.5044 6.11355 20.3328 5.03804C19.1611 3.96254 18.502 2.50436 18.5 0.983365C18.5 0.800779 18.421 0.62567 18.2803 0.496562C18.1397 0.367454 17.9489 0.294922 17.75 0.294922H12.75C12.5511 0.294922 12.3603 0.367454 12.2197 0.496562C12.079 0.62567 12 0.800779 12 0.983365V16.1291C11.9997 16.5808 11.8674 17.0241 11.6168 17.4128C11.3663 17.8016 11.0067 18.1215 10.5756 18.3392C10.1445 18.5569 9.65765 18.6645 9.16582 18.6507C8.674 18.6369 8.19522 18.5022 7.77943 18.2606C7.36364 18.0191 7.02607 17.6796 6.80192 17.2775C6.57776 16.8754 6.47524 16.4255 6.50505 15.9747C6.53486 15.5238 6.6959 15.0886 6.97138 14.7143C7.24686 14.3401 7.62669 14.0405 8.07125 13.8469C8.1995 13.7911 8.30786 13.7031 8.38376 13.593C8.45965 13.4829 8.49996 13.3553 8.5 13.225V8.32676C8.49989 8.2267 8.47602 8.12787 8.43005 8.03714C8.38408 7.94641 8.31712 7.86597 8.23383 7.80143C8.15054 7.73688 8.05293 7.68977 7.94778 7.66338C7.84263 7.637 7.73248 7.63197 7.625 7.64864C3.275 8.35889 0 12.0042 0 16.1291C0 18.381 0.974551 20.5407 2.70926 22.133C4.44397 23.7254 6.79675 24.6199 9.25 24.6199C11.7033 24.6199 14.056 23.7254 15.7907 22.133C17.5254 20.5407 18.5 18.381 18.5 16.1291V11.1872C20.407 12.1747 22.5605 12.6914 24.75 12.6869C24.9489 12.6869 25.1397 12.6144 25.2803 12.4853C25.421 12.3562 25.5 12.181 25.5 11.9985V7.40884C25.5 7.22625 25.421 7.05114 25.2803 6.92203C25.1397 6.79293 24.9489 6.72039 24.75 6.72039ZM24 11.2871C21.9046 11.1642 19.8897 10.5004 18.1875 9.37205C18.0753 9.29808 17.943 9.25399 17.8052 9.24465C17.6675 9.23531 17.5296 9.26108 17.4067 9.31911C17.2839 9.37714 17.1809 9.46519 17.1092 9.57354C17.0374 9.68188 16.9996 9.80632 17 9.93313V16.1291C17 18.0158 16.1835 19.8253 14.7301 21.1594C13.2767 22.4935 11.3054 23.243 9.25 23.243C7.19457 23.243 5.22333 22.4935 3.76992 21.1594C2.31652 19.8253 1.5 18.0158 1.5 16.1291C1.5 12.9485 3.80875 10.1075 7 9.20108V12.8189C6.37236 13.1784 5.85784 13.6821 5.50731 14.2801C5.15678 14.8781 4.9824 15.5498 5.0014 16.2287C5.02041 16.9076 5.23214 17.5701 5.61566 18.1509C5.99919 18.7316 6.54122 19.2103 7.18814 19.5398C7.83507 19.8693 8.56448 20.038 9.30424 20.0293C10.044 20.0207 10.7685 19.8349 11.406 19.4904C12.0436 19.1459 12.5721 18.6546 12.9394 18.065C13.3066 17.4755 13.4999 16.8082 13.5 16.1291V1.67181H17.0362C17.2121 3.31229 18.0023 4.84602 19.2722 6.01162C20.542 7.17722 22.2128 7.90255 24 8.064V11.2871Z" fill="#D94135"/>
</svg>
