<svg width="39" height="38" viewBox="0 0 39 38" fill="none" xmlns="http://www.w3.org/2000/svg">
<path d="M8.125 7.91602H29.25C30.5429 7.91602 31.7829 8.41646 32.6971 9.30726C33.6114 10.1981 34.125 11.4062 34.125 12.666V26.916C34.125 28.1758 33.6114 29.384 32.6971 30.2748C31.7829 31.1656 30.5429 31.666 29.25 31.666H8.125C6.83207 31.666 5.59209 31.1656 4.67785 30.2748C3.76361 29.384 3.25 28.1758 3.25 26.916V12.666C3.25 11.4062 3.76361 10.1981 4.67785 9.30726C5.59209 8.41646 6.83207 7.91602 8.125 7.91602ZM8.125 9.49935C7.3125 9.49935 6.5975 9.76852 6.045 10.2435L18.6875 18.2077L31.33 10.2435C30.7775 9.76852 30.0625 9.49935 29.25 9.49935H8.125ZM18.6875 20.1235L5.08625 11.526C4.95625 11.8743 4.875 12.2702 4.875 12.666V26.916C4.875 27.7559 5.21741 28.5613 5.8269 29.1552C6.4364 29.7491 7.26305 30.0827 8.125 30.0827H29.25C30.112 30.0827 30.9386 29.7491 31.5481 29.1552C32.1576 28.5613 32.5 27.7559 32.5 26.916V12.666C32.5 12.2702 32.4188 11.8743 32.2888 11.526L18.6875 20.1235Z" fill="white"/>
</svg>
