<svg width="39" height="39" viewBox="0 0 39 39" fill="none" xmlns="http://www.w3.org/2000/svg">
<path d="M26 13C27.2929 13 28.5329 13.5136 29.4471 14.4279C30.3614 15.3421 30.875 16.5821 30.875 17.875V30.875C30.875 32.1679 30.3614 33.4079 29.4471 34.3221C28.5329 35.2364 27.2929 35.75 26 35.75H11.375C10.0821 35.75 8.84209 35.2364 7.92785 34.3221C7.01361 33.4079 6.5 32.1679 6.5 30.875V17.875C6.5 16.5821 7.01361 15.3421 7.92785 14.4279C8.84209 13.5136 10.0821 13 11.375 13V10.5625C11.375 6.5 14.625 3.25 18.6875 3.25C22.75 3.25 26 6.5 26 10.5625V13ZM11.375 14.625C10.513 14.625 9.6864 14.9674 9.0769 15.5769C8.46741 16.1864 8.125 17.013 8.125 17.875V30.875C8.125 31.737 8.46741 32.5636 9.0769 33.1731C9.6864 33.7826 10.513 34.125 11.375 34.125H26C26.862 34.125 27.6886 33.7826 28.2981 33.1731C28.9076 32.5636 29.25 31.737 29.25 30.875V17.875C29.25 17.013 28.9076 16.1864 28.2981 15.5769C27.6886 14.9674 26.862 14.625 26 14.625H11.375ZM24.375 13V10.5625C24.375 9.05408 23.7758 7.60744 22.7092 6.54083C21.6426 5.47422 20.1959 4.875 18.6875 4.875C17.1791 4.875 15.7324 5.47422 14.6658 6.54083C13.5992 7.60744 13 9.05408 13 10.5625V13H24.375ZM18.6875 22.75C18.041 22.75 17.421 23.0068 16.9639 23.4639C16.5068 23.921 16.25 24.541 16.25 25.1875C16.25 25.834 16.5068 26.454 16.9639 26.9111C17.421 27.3682 18.041 27.625 18.6875 27.625C19.334 27.625 19.954 27.3682 20.4111 26.9111C20.8682 26.454 21.125 25.834 21.125 25.1875C21.125 24.541 20.8682 23.921 20.4111 23.4639C19.954 23.0068 19.334 22.75 18.6875 22.75ZM18.6875 21.125C19.7649 21.125 20.7983 21.553 21.5601 22.3149C22.322 23.0767 22.75 24.1101 22.75 25.1875C22.75 26.2649 22.322 27.2983 21.5601 28.0601C20.7983 28.822 19.7649 29.25 18.6875 29.25C17.6101 29.25 16.5767 28.822 15.8149 28.0601C15.053 27.2983 14.625 26.2649 14.625 25.1875C14.625 24.1101 15.053 23.0767 15.8149 22.3149C16.5767 21.553 17.6101 21.125 18.6875 21.125Z" fill="white"/>
</svg>
