<svg width="36" height="34" viewBox="0 0 36 34" fill="none" xmlns="http://www.w3.org/2000/svg">
<path opacity="0.5" d="M22.9095 26.5314C20.9135 26.5317 18.9622 25.973 17.3024 24.9259C15.6427 23.8788 14.3489 22.3904 13.5848 20.6489C12.8207 18.9074 12.6205 16.991 13.0096 15.142C13.3987 13.2931 14.3597 11.5946 15.7708 10.2614C17.182 8.92824 18.9801 8.02022 20.9377 7.65217C22.8953 7.28413 24.9245 7.4726 26.7687 8.19374C28.6129 8.91489 30.1892 10.1363 31.2984 11.7036C32.4075 13.2708 32.9997 15.1136 33 16.9987V17.0001C32.9972 19.5269 31.9333 21.9495 30.0416 23.7364C28.1499 25.5232 25.585 26.5284 22.9095 26.5314Z" fill="black"/>
<path d="M13.0905 26.5314C11.0945 26.5314 9.14332 25.9724 7.48369 24.9251C5.82407 23.8778 4.53056 22.3892 3.76672 20.6476C3.00288 18.9059 2.80302 16.9895 3.19242 15.1406C3.58183 13.2917 4.543 11.5934 5.95439 10.2604C7.36578 8.92744 9.164 8.01966 11.1217 7.6519C13.0793 7.28413 15.1085 7.47288 16.9526 8.19428C18.7966 8.91569 20.3728 10.1373 21.4817 11.7048C22.5906 13.2722 23.1825 15.115 23.1825 17.0001C23.1797 19.5271 22.1156 21.95 20.2236 23.7369C18.3315 25.5238 15.7662 26.5288 13.0905 26.5314Z" fill="black"/>
</svg>
