<svg width="36" height="34" viewBox="0 0 36 34" fill="none" xmlns="http://www.w3.org/2000/svg">
<path d="M23.175 23.4042L18.66 19.14C18.495 18.9842 18.3 18.9558 18.195 18.9558C18.09 18.9558 17.895 18.9842 17.73 19.14L13.2 23.4183C12.69 23.9 11.895 24.6792 9.23999 24.6792L14.805 29.9208C15.6487 30.7167 16.7925 31.1637 17.985 31.1637C19.1775 31.1637 20.3212 30.7167 21.165 29.9208L26.745 24.665C25.38 24.665 24.24 24.41 23.175 23.4042ZM13.2 10.5833L17.73 14.8617C17.85 14.975 18.03 15.0458 18.195 15.0458C18.36 15.0458 18.54 14.975 18.66 14.8617L23.145 10.6258C24.21 9.57748 25.425 9.33665 26.79 9.33665L21.21 4.08082C20.3662 3.28493 19.2225 2.83789 18.03 2.83789C16.8375 2.83789 15.6937 3.28493 14.85 4.08082L9.28499 9.32248C11.925 9.32248 12.735 10.1442 13.2 10.5833Z" fill="black"/>
<path d="M31.665 13.9546L28.29 10.7529H26.4C25.59 10.7529 24.78 11.0646 24.225 11.6171L19.725 15.8671C19.305 16.2638 18.75 16.4621 18.195 16.4621C17.6235 16.4545 17.0765 16.2418 16.665 15.8671L12.135 11.5746C11.565 11.0363 10.785 10.7246 9.96001 10.7246H7.75501L4.32001 13.9829C3.47731 14.7798 3.00397 15.86 3.00397 16.9863C3.00397 18.1125 3.47731 19.1927 4.32001 19.9896L7.75501 23.2479H9.97501C10.785 23.2479 11.565 22.9363 12.15 22.3979L16.68 18.1196C17.1 17.7229 17.655 17.5246 18.21 17.5246C18.765 17.5246 19.32 17.7229 19.74 18.1196L24.255 22.3838C24.825 22.9221 25.605 23.2338 26.43 23.2338H28.32L31.695 20.0321C32.542 19.2212 33.0144 18.1265 33.0087 16.9875C33.0031 15.8485 32.52 14.758 31.665 13.9546Z" fill="black"/>
</svg>
