<svg width="36" height="34" viewBox="0 0 36 34" fill="none" xmlns="http://www.w3.org/2000/svg">
<rect x="0.5" y="0.5" width="35" height="33" stroke="black"/>
<path d="M24.8085 13.0139C24.1108 12.7752 23.374 12.6548 22.632 12.6583C20.232 12.6583 18.537 13.8001 18.525 15.4392C18.51 16.6434 19.7295 17.3219 20.652 17.7243C21.5985 18.1379 21.915 18.3986 21.912 18.7684C21.906 19.3308 21.156 19.5858 20.4585 19.5858C19.5 19.5858 18.9765 19.4597 18.171 19.1438L17.8725 19.012L17.532 20.899C18.1155 21.1285 19.167 21.3254 20.253 21.3424C22.8045 21.3424 24.4725 20.2077 24.492 18.4638C24.513 17.5019 23.853 16.7751 22.464 16.1744C21.6195 15.7849 21.096 15.5242 21.096 15.1289C21.096 14.779 21.5445 14.405 22.482 14.405C23.1059 14.3908 23.726 14.5013 24.3015 14.7294L24.5265 14.8244L24.867 13.0011L24.8085 13.0139ZM31.0365 12.8113H29.1615C28.578 12.8113 28.1385 12.9629 27.8835 13.5097L24.2775 21.2249H26.829L27.339 19.9598L30.453 19.9626C30.5265 20.2587 30.7515 21.2249 30.7515 21.2249H33.0015L31.0365 12.8113ZM15.0735 12.7404H17.505L15.984 21.1583H13.5555L15.0735 12.7376V12.7404ZM8.90101 17.38L9.15301 18.5488L11.529 12.8113H14.1045L10.278 21.2135H7.70851L5.60851 14.099C5.57436 13.9818 5.49452 13.8811 5.38501 13.8171C4.6278 13.4485 3.8259 13.1683 2.99701 12.9827L3.03001 12.8056H6.94351C7.47451 12.8254 7.90201 12.9827 8.04451 13.5182L8.89951 17.3843L8.90101 17.38ZM28.0365 18.2385L29.0055 15.884C28.9935 15.9095 29.205 15.3981 29.328 15.0822L29.4945 15.8089L30.057 18.2371H28.035L28.0365 18.2385Z" fill="black"/>
</svg>
