<svg width="26" height="21" viewBox="0 0 26 21" fill="none" xmlns="http://www.w3.org/2000/svg">
<path d="M4.66699 0.666016H22.0003C23.0612 0.666016 24.0786 1.08744 24.8288 1.83759C25.5789 2.58773 26.0003 3.60515 26.0003 4.66602V16.666C26.0003 17.7269 25.5789 18.7443 24.8288 19.4944C24.0786 20.2446 23.0612 20.666 22.0003 20.666H4.66699C3.60613 20.666 2.58871 20.2446 1.83857 19.4944C1.08842 18.7443 0.666992 17.7269 0.666992 16.666V4.66602C0.666992 3.60515 1.08842 2.58773 1.83857 1.83759C2.58871 1.08744 3.60613 0.666016 4.66699 0.666016ZM4.66699 1.99935C4.00033 1.99935 3.41366 2.22602 2.96033 2.62602L13.3337 9.33268L23.707 2.62602C23.2537 2.22602 22.667 1.99935 22.0003 1.99935H4.66699ZM13.3337 10.946L2.17366 3.70602C2.06699 3.99935 2.00033 4.33268 2.00033 4.66602V16.666C2.00033 17.3733 2.28128 18.0515 2.78137 18.5516C3.28147 19.0517 3.95975 19.3327 4.66699 19.3327H22.0003C22.7076 19.3327 23.3858 19.0517 23.8859 18.5516C24.386 18.0515 24.667 17.3733 24.667 16.666V4.66602C24.667 4.33268 24.6003 3.99935 24.4937 3.70602L13.3337 10.946Z" fill="black"/>
</svg>
