<svg width="21" height="21" viewBox="0 0 21 21" fill="none" xmlns="http://www.w3.org/2000/svg">
<path d="M10.333 12.666C15.853 12.666 20.333 14.7593 20.333 17.3327V20.666H0.333008V17.3327C0.333008 14.7593 4.81301 12.666 10.333 12.666ZM18.9997 17.3327C18.9997 15.4927 15.1197 13.9993 10.333 13.9993C5.54634 13.9993 1.66634 15.4927 1.66634 17.3327V19.3327H18.9997V17.3327ZM10.333 0.666016C11.5707 0.666016 12.7577 1.15768 13.6328 2.03285C14.508 2.90802 14.9997 4.09501 14.9997 5.33268C14.9997 6.57036 14.508 7.75734 13.6328 8.63251C12.7577 9.50768 11.5707 9.99935 10.333 9.99935C9.09533 9.99935 7.90835 9.50768 7.03318 8.63251C6.15801 7.75734 5.66634 6.57036 5.66634 5.33268C5.66634 4.09501 6.15801 2.90802 7.03318 2.03285C7.90835 1.15768 9.09533 0.666016 10.333 0.666016ZM10.333 1.99935C9.44895 1.99935 8.60111 2.35054 7.97599 2.97566C7.35086 3.60078 6.99967 4.44863 6.99967 5.33268C6.99967 6.21674 7.35086 7.06458 7.97599 7.6897C8.60111 8.31483 9.44895 8.66602 10.333 8.66602C11.2171 8.66602 12.0649 8.31483 12.69 7.6897C13.3152 7.06458 13.6663 6.21674 13.6663 5.33268C13.6663 4.44863 13.3152 3.60078 12.69 2.97566C12.0649 2.35054 11.2171 1.99935 10.333 1.99935Z" fill="#101010"/>
</svg>
