<svg width="32" height="32" viewBox="0 0 32 32" fill="none" xmlns="http://www.w3.org/2000/svg">
<path d="M21.333 10.666C22.3939 10.666 23.4113 11.0874 24.1614 11.8376C24.9116 12.5877 25.333 13.6052 25.333 14.666V25.3327C25.333 26.3935 24.9116 27.411 24.1614 28.1611C23.4113 28.9113 22.3939 29.3327 21.333 29.3327H9.33301C8.27214 29.3327 7.25473 28.9113 6.50458 28.1611C5.75444 27.411 5.33301 26.3935 5.33301 25.3327V14.666C5.33301 13.6052 5.75444 12.5877 6.50458 11.8376C7.25473 11.0874 8.27214 10.666 9.33301 10.666V8.66602C9.33301 5.33268 11.9997 2.66602 15.333 2.66602C18.6663 2.66602 21.333 5.33268 21.333 8.66602V10.666ZM9.33301 11.9993C8.62576 11.9993 7.94749 12.2803 7.44739 12.7804C6.94729 13.2805 6.66634 13.9588 6.66634 14.666V25.3327C6.66634 26.0399 6.94729 26.7182 7.44739 27.2183C7.94749 27.7184 8.62576 27.9993 9.33301 27.9993H21.333C22.0403 27.9993 22.7185 27.7184 23.2186 27.2183C23.7187 26.7182 23.9997 26.0399 23.9997 25.3327V14.666C23.9997 13.9588 23.7187 13.2805 23.2186 12.7804C22.7185 12.2803 22.0403 11.9993 21.333 11.9993H9.33301ZM19.9997 10.666V8.66602C19.9997 7.42834 19.508 6.24135 18.6328 5.36618C17.7577 4.49101 16.5707 3.99935 15.333 3.99935C14.0953 3.99935 12.9083 4.49101 12.0332 5.36618C11.158 6.24135 10.6663 7.42834 10.6663 8.66602V10.666H19.9997ZM15.333 18.666C14.8026 18.666 14.2939 18.8767 13.9188 19.2518C13.5437 19.6269 13.333 20.1356 13.333 20.666C13.333 21.1964 13.5437 21.7052 13.9188 22.0802C14.2939 22.4553 14.8026 22.666 15.333 22.666C15.8634 22.666 16.3721 22.4553 16.7472 22.0802C17.1223 21.7052 17.333 21.1964 17.333 20.666C17.333 20.1356 17.1223 19.6269 16.7472 19.2518C16.3721 18.8767 15.8634 18.666 15.333 18.666ZM15.333 17.3327C16.2171 17.3327 17.0649 17.6839 17.69 18.309C18.3152 18.9341 18.6663 19.782 18.6663 20.666C18.6663 21.5501 18.3152 22.3979 17.69 23.023C17.0649 23.6482 16.2171 23.9993 15.333 23.9993C14.449 23.9993 13.6011 23.6482 12.976 23.023C12.3509 22.3979 11.9997 21.5501 11.9997 20.666C11.9997 19.782 12.3509 18.9341 12.976 18.309C13.6011 17.6839 14.449 17.3327 15.333 17.3327Z" fill="black"/>
</svg>
